<svg width="69" height="58" viewBox="0 0 69 58" fill="none" xmlns="http://www.w3.org/2000/svg">
<path d="M30.8767 19.8857C30.0731 8.38647 33.6623 2.72547 30.0195 2.43394C27.0196 2.43394 28.5732 10.3014 24.5554 17.3153C21.502 18.7584 22.6269 1.30656 18.8235 1.01185C15.0201 0.717148 18.7164 5.90626 17.5914 17.8565C15.1272 18.1721 10.7345 3.87698 7.57391 5.27492C3.98475 5.72588 14.663 19.9354 12.7702 20.6523C9.93097 22.6816 4.35973 11.1824 1.41341 12.7156C-1.35023 13.6238 10.6745 25.6663 9.93097 26.5598C11.912 36.1153 13.4529 39.5222 17.3771 40.2688C19.8234 40.0004 20.982 40.0328 22.8412 40.2688C26.6694 36.3766 28.5736 34.342 31.3588 29.8518C17.5914 31.9261 14.0558 22.1856 24.8769 21.6445L30.8767 19.8857Z" fill="white" stroke="#5259E2"/>
<path d="M29.9124 27.2121C23.8439 27.1396 21.7163 26.2651 22.5198 24.8221C32.9123 24.2809 41.6441 16.4344 49.3581 18.148C49.3581 18.148 53.483 21.7556 57.3936 23.1536C61.197 26.671 55.6794 36.9076 54.233 39.0721C52.7866 41.2367 55.7865 53.9986 52.1973 53.5928C50.0545 53.8633 50.8581 41.2818 48.3403 41.6876C45.8761 40.6956 46.0904 57.7415 42.3405 56.9749C39.1799 56.8396 44.3762 42.4092 42.2334 41.9582C35.9657 46.7834 34.198 56.7494 30.3945 55.4417C27.0196 54.5397 39.6085 39.0721 35.9657 39.0721C33.073 39.2976 24.062 49.4487 21.9841 49.0381C18.3472 47.5592 27.8232 41.9582 32.8052 34.247C37.2514 29.0159 37.1979 26.3553 29.9124 27.2121Z" fill="white" stroke="#5259E2"/>
<path d="M9.39527 37.4938C8.81979 38.1895 11.5916 42.3641 14.9129 43.5816C15.8852 43.8586 15.9307 43.0856 15.6629 42.9503C15.5558 42.815 12.3952 42.3641 10.0381 37.4938C9.87739 37.2683 9.5024 37.3134 9.39527 37.4938Z" fill="white" stroke="#5259E2"/>
<path d="M6.62549 38.3279C5.98018 38.9787 8.30924 43.3408 11.4919 44.7974C12.4317 45.1446 12.5572 44.3779 12.3043 44.2235C12.2116 44.0808 9.10973 43.3997 7.26588 38.3751C7.12913 38.1386 6.7509 38.1561 6.62549 38.3279Z" fill="white" stroke="#5259E2"/>
<path d="M61.0864 30.3935C62.0319 30.1015 62.6057 25.3435 60.7147 22.7425C60.107 22.0462 59.5429 22.6574 59.6701 22.8975C59.6657 23.0601 61.9475 24.9555 60.5598 30.0831C60.5379 30.3454 60.8758 30.4895 61.0864 30.3935Z" fill="white" stroke="#5259E2"/>
<path d="M63.9236 31.0476C64.8957 30.8261 65.9599 26.1283 64.3454 23.3984C63.8121 22.6602 63.1869 23.2277 63.2888 23.4763C63.2676 23.6379 65.3444 25.6935 63.4311 30.6998C63.3821 30.9595 63.7038 31.1278 63.9236 31.0476Z" fill="white" stroke="#5259E2"/>
</svg>
